<svg width="21" height="21" viewBox="0 0 21 21" fill="none" xmlns="http://www.w3.org/2000/svg">
<g clip-path="url(#clip0_1_1230)">
<path d="M1.04022 8.7002C1.04022 9.78092 1.24205 10.7965 1.64569 11.7471C2.06236 12.6976 2.62225 13.5244 3.32538 14.2275C4.0285 14.9307 4.85533 15.4906 5.80585 15.9072C6.75637 16.3109 7.77199 16.5127 8.85272 16.5127C9.79022 16.5127 10.6789 16.3564 11.5187 16.0439C12.3586 15.7314 13.117 15.3018 13.7941 14.7549L18.6183 19.5596L19.7121 18.4658L14.9074 13.6416C15.4543 12.9645 15.884 12.2061 16.1965 11.3662C16.509 10.5264 16.6652 9.6377 16.6652 8.7002C16.6652 7.61947 16.4634 6.60384 16.0598 5.65332C15.6431 4.7028 15.0832 3.87598 14.3801 3.17285C13.6769 2.46973 12.8501 1.90983 11.8996 1.49316C10.9491 1.08952 9.93345 0.887695 8.85272 0.887695C7.77199 0.887695 6.75637 1.08952 5.80585 1.49316C4.85533 1.90983 4.0285 2.46973 3.32538 3.17285C2.62225 3.87598 2.06236 4.7028 1.64569 5.65332C1.24205 6.60384 1.04022 7.61947 1.04022 8.7002ZM8.85272 14.9502C7.99335 14.9502 7.17954 14.7874 6.41132 14.4619C5.65611 14.1364 4.9953 13.6904 4.42889 13.124C3.86249 12.5576 3.41652 11.8968 3.091 11.1416C2.76548 10.3734 2.60272 9.55957 2.60272 8.7002C2.60272 7.84082 2.76548 7.02702 3.091 6.25879C3.41652 5.50358 3.86249 4.84277 4.42889 4.27637C4.9953 3.70996 5.65611 3.264 6.41132 2.93848C7.17954 2.61296 7.99335 2.4502 8.85272 2.4502C9.7121 2.4502 10.5259 2.61296 11.2941 2.93848C12.0493 3.264 12.7101 3.70996 13.2766 4.27637C13.843 4.84277 14.2889 5.50358 14.6144 6.25879C14.94 7.02702 15.1027 7.84082 15.1027 8.7002C15.1027 9.55957 14.94 10.3734 14.6144 11.1416C14.2889 11.8968 13.843 12.5576 13.2766 13.124C12.7101 13.6904 12.0493 14.1364 11.2941 14.4619C10.5259 14.7874 9.7121 14.9502 8.85272 14.9502Z" fill="#333333"/>
</g>
<defs>
<clipPath id="clip0_1_1230">
<rect width="19.69" height="20" fill="white" transform="matrix(1 0 0 -1 0.414001 20.2627)"/>
</clipPath>
</defs>
</svg>
