<svg width="25" height="24" viewBox="0 0 25 24" fill="none" xmlns="http://www.w3.org/2000/svg">
<path d="M12.5085 0.027832C18.9304 0.027832 24.1335 5.23096 24.1335 11.6528C24.1335 18.0747 18.9304 23.2778 12.5085 23.2778C6.08665 23.2778 0.883521 18.0747 0.883521 11.6528C0.883521 5.23096 6.08665 0.027832 12.5085 0.027832ZM18.1804 7.99658C18.3679 7.24658 17.8991 6.91846 17.3835 7.10596L6.1804 11.4185C5.4304 11.6997 5.4304 12.1685 6.03977 12.356L8.89915 13.2466L15.5554 9.02783C15.8835 8.84033 16.1648 8.98096 15.9304 9.16846L10.5398 14.0435L10.3523 16.9966C10.6335 16.9966 10.7741 16.856 10.9148 16.7153L12.321 15.356L15.2273 17.5122C15.7898 17.7935 16.1648 17.6528 16.3054 16.9966L18.1804 7.99658Z" fill="white"/>
</svg>
