<svg width="28" height="36" viewBox="0 0 28 36" fill="none" xmlns="http://www.w3.org/2000/svg">
<path d="M12.6507 34.4541C2.67024 20.0986 0.892896 18.5947 0.892896 13.2627C0.892896 6.0166 6.70344 0.137695 14.0179 0.137695C21.264 0.137695 27.1429 6.0166 27.1429 13.2627C27.1429 18.5947 25.2972 20.0986 15.3167 34.4541C14.7015 35.4111 13.2659 35.4111 12.6507 34.4541ZM14.0179 18.7314C17.0257 18.7314 19.4866 16.3389 19.4866 13.2627C19.4866 10.2549 17.0257 7.79395 14.0179 7.79395C10.9417 7.79395 8.54915 10.2549 8.54915 13.2627C8.54915 16.3389 10.9417 18.7314 14.0179 18.7314Z" fill="white"/>
</svg>
