<svg width="71" height="61" viewBox="0 0 71 61" fill="none" xmlns="http://www.w3.org/2000/svg">
<path d="M38.1648 44.6022C43.6545 41.4327 44.3183 32.3049 39.6475 24.2148C34.9767 16.1246 26.7399 12.1357 21.2501 15.3052C15.7604 18.4747 15.0966 27.6024 19.7674 35.6926C24.4382 43.7827 32.675 47.7717 38.1648 44.6022Z" fill="#A57939"/>
<path fill-rule="evenodd" clip-rule="evenodd" d="M38.3285 44.5076C38.3207 44.5122 38.3117 44.5027 38.318 44.4955C41.8179 40.498 41.6244 32.6396 37.4975 25.4916C33.3683 18.3395 26.6542 14.2422 21.4411 15.2807C21.3991 15.2889 21.3767 15.2321 21.4139 15.2106C26.8129 12.0935 34.9766 16.1246 39.6475 24.2148C44.3184 32.3049 43.7275 41.3905 38.3285 44.5076Z" fill="#6A462F"/>
<path fill-rule="evenodd" clip-rule="evenodd" d="M37.2586 43.0326C37.2586 43.0326 30.7389 38.9892 26.5685 31.7659C22.4123 24.5672 22.1583 16.9265 22.1563 16.8746C22.1574 16.9116 22.2873 20.7261 24.3624 24.3203C26.4474 27.9316 29.7075 29.9536 29.7075 29.9536C29.7075 29.9536 32.9672 31.9751 35.0525 35.587C37.1379 39.1989 37.2586 43.0326 37.2586 43.0326Z" fill="#6A462F"/>
<path d="M37.2586 43.0326L36.9403 43.5457C37.0331 43.6031 37.1398 43.6344 37.249 43.6361C37.3582 43.6377 37.4658 43.6098 37.5603 43.5552C37.6549 43.5006 37.7329 43.4214 37.786 43.326C37.8392 43.2306 37.8655 43.1226 37.8621 43.0135L37.2586 43.0326ZM22.1563 16.8746L22.76 16.8546C22.7547 16.6945 22.6861 16.543 22.5692 16.4334C22.4522 16.3239 22.2965 16.2653 22.1364 16.2705C21.9762 16.2757 21.8247 16.3444 21.7152 16.4613C21.6057 16.5783 21.5471 16.7339 21.5523 16.8941L22.1563 16.8746ZM26.0453 32.0679C28.1723 35.752 30.8933 38.6175 33.0754 40.5594C33.9536 41.3426 34.8695 42.0825 35.8197 42.7766C36.1596 43.024 36.5057 43.2628 36.8576 43.493L36.9172 43.5311L36.933 43.5415L36.938 43.5442L36.9389 43.5457L37.2586 43.0326C37.4706 42.6903 37.5769 42.5191 37.5775 42.5193L37.5744 42.5176L37.5623 42.5099L37.5111 42.4767C37.4649 42.4476 37.3966 42.4029 37.306 42.3426C37.0438 42.1665 36.7851 41.9854 36.5299 41.7995C35.612 41.1287 34.7273 40.4136 33.8789 39.6568C31.7588 37.7704 29.1347 35.0025 27.0916 31.4639L26.0453 32.0679ZM21.5523 16.8941C21.5556 16.9759 21.813 24.7374 26.0453 32.0679L27.0916 31.4639C23.011 24.396 22.7608 16.8778 22.7603 16.8551L21.5523 16.8941ZM24.8855 24.0182C23.8897 22.2934 23.3565 20.5072 23.0731 19.1404C22.7899 17.7763 22.7596 16.8492 22.76 16.8546L21.5526 16.8946C21.5544 16.9605 21.6884 20.8969 23.8389 24.6218L24.8855 24.0182ZM29.7075 29.9536C29.9195 29.6112 30.0258 29.4401 30.0263 29.4403L30.0255 29.4401L30.0207 29.4366L29.899 29.3575C29.8116 29.2992 29.6829 29.2103 29.5207 29.0925C29.07 28.7626 28.6354 28.4114 28.2183 28.04C27.1738 27.1105 25.8859 25.7509 24.8855 24.0182L23.8389 24.6218C24.9233 26.4999 26.3088 27.9573 27.4158 28.942C27.8623 29.3398 28.3276 29.7159 28.8102 30.0692C28.985 30.1964 29.163 30.3192 29.3438 30.4377L29.3764 30.4579C29.3798 30.4606 29.3827 30.4624 29.3851 30.4634L29.3877 30.4654L29.3883 30.4664L29.7075 29.9536ZM29.7075 29.9536L29.3883 30.4664L29.3891 30.4667L29.3947 30.4704L29.5156 30.5492C29.603 30.6075 29.7317 30.6964 29.8939 30.8142C30.2185 31.0502 30.6757 31.4035 31.1963 31.8668C32.2408 32.7962 33.5292 34.1555 34.5299 35.8887L35.5762 35.2846C34.4916 33.406 33.1064 31.9491 31.9993 30.9644C31.5528 30.5666 31.0875 30.1905 30.605 29.8372C30.4197 29.703 30.231 29.5735 30.039 29.449L30.03 29.443L30.0274 29.441L30.0263 29.4403L29.7075 29.9536ZM34.5299 35.8887C35.5303 37.6214 36.0632 39.4168 36.3454 40.7864C36.4587 41.3333 36.5457 41.8852 36.6063 42.4404C36.6273 42.6416 36.6433 42.8433 36.6542 43.0454L36.6548 43.0513L37.2586 43.0326L37.8621 43.0135L37.8617 43.0116L37.8618 43.0081L37.8619 42.9975L37.8602 42.9594L37.8522 42.8211C37.8439 42.7017 37.8306 42.5301 37.8077 42.3139C37.7432 41.7193 37.6502 41.1281 37.5292 40.5424C37.2293 39.0903 36.6605 37.1628 35.5762 35.2846L34.5299 35.8887Z" fill="#6A462F"/>
<path d="M38.1648 44.6022C43.6545 41.4327 44.3183 32.3049 39.6475 24.2148C34.9767 16.1246 26.7399 12.1357 21.2501 15.3052C15.7604 18.4747 15.0966 27.6024 19.7674 35.6926C24.4382 43.7827 32.675 47.7717 38.1648 44.6022Z" stroke="black" stroke-width="0.5"/>
<path d="M22.1563 16.8746C22.1563 16.8746 22.277 20.7084 24.3624 24.3203C26.4477 27.9322 29.7074 29.9536 29.7074 29.9536C29.7074 29.9536 32.9672 31.9751 35.0525 35.587C37.1378 39.1989 37.2586 43.0326 37.2586 43.0326" stroke="black" stroke-width="0.5" stroke-linecap="round" stroke-linejoin="round"/>
<path d="M32.0659 44.5573C37.4411 47.9174 45.8127 44.2197 50.7644 36.2984C55.716 28.377 55.3727 19.2316 49.9975 15.8715C44.6222 12.5115 36.2507 16.2091 31.299 24.1305C26.3473 32.0519 26.6907 41.1973 32.0659 44.5573Z" fill="#A57939"/>
<path fill-rule="evenodd" clip-rule="evenodd" d="M32.2262 44.6576C32.2185 44.6528 32.2227 44.6404 32.232 44.6427C37.4044 45.857 44.2528 41.998 48.6278 34.9992C53.0054 27.9962 53.4723 20.1446 50.1087 16.0287C50.0817 15.9955 50.1214 15.949 50.1578 15.9718C55.4442 19.2763 55.716 28.377 50.7644 36.2984C45.8127 44.2198 37.5126 47.9621 32.2262 44.6576Z" fill="#6A462F"/>
<path fill-rule="evenodd" clip-rule="evenodd" d="M33.0265 43.0206C33.0265 43.0206 33.5371 35.3658 37.9582 28.2932C42.3642 21.2447 48.992 17.4344 49.0368 17.4083C49.0047 17.4267 45.6973 19.3316 43.4975 22.8508C41.2871 26.3868 41.0317 30.2145 41.0317 30.2145C41.0317 30.2145 40.7765 34.0416 38.5658 37.5782C36.3551 41.1147 33.0265 43.0206 33.0265 43.0206Z" fill="#6A462F"/>
<path d="M33.0265 43.0206L32.4241 42.9803C32.4169 43.0893 32.4394 43.1982 32.4891 43.2953C32.5389 43.3925 32.6141 43.4744 32.7067 43.5323C32.7993 43.5902 32.9058 43.6219 33.015 43.6241C33.1241 43.6262 33.2319 43.5987 33.3267 43.5445L33.0265 43.0206ZM49.0368 17.4083L49.3378 17.932C49.4768 17.8522 49.5784 17.7205 49.6202 17.5658C49.662 17.4111 49.6407 17.2462 49.5609 17.1072C49.4812 16.9683 49.3494 16.8667 49.1948 16.8248C49.0401 16.783 48.8751 16.8043 48.7362 16.8841L49.0368 17.4083ZM37.4459 27.973C35.191 31.5803 33.9378 35.3278 33.2471 38.166C32.9677 39.3091 32.7442 40.4651 32.5772 41.6299C32.5184 42.0462 32.4699 42.4638 32.4318 42.8825L32.4261 42.9531L32.4243 42.9719L32.4243 42.9776L32.4234 42.9792L33.0265 43.0206C33.4283 43.0472 33.6293 43.0607 33.6294 43.0613L33.6295 43.0578L33.6306 43.0435L33.6359 42.9827C33.64 42.9282 33.6473 42.8469 33.658 42.7386C33.6905 42.4245 33.729 42.1111 33.7734 41.7984C33.935 40.6731 34.1512 39.5562 34.4213 38.4519C35.092 35.6945 36.3046 32.0783 38.4704 28.6134L37.4459 27.973ZM48.7362 16.8841C48.6655 16.9254 41.9327 20.7954 37.4459 27.973L38.4704 28.6134C42.7964 21.693 49.3177 17.9437 49.3375 17.9325L48.7362 16.8841ZM44.0098 23.171C45.0655 21.4821 46.3925 20.173 47.4664 19.2812C48.538 18.3909 49.3424 17.9292 49.3378 17.932L48.7359 16.8846C48.6785 16.9171 45.2655 18.8829 42.9856 22.5301L44.0098 23.171ZM41.0317 30.2145C41.4335 30.241 41.6345 30.2546 41.6346 30.2551L41.6344 30.2543L41.6353 30.2484L41.6479 30.1039C41.6585 29.9993 41.6765 29.8439 41.7044 29.6455C41.7842 29.0927 41.8904 28.544 42.0226 28.0014C42.3531 26.6428 42.9492 24.8675 44.0098 23.171L42.9856 22.5301C41.836 24.369 41.1994 26.2764 40.8494 27.7161C40.7077 28.2971 40.594 28.8845 40.5085 29.4764C40.4783 29.6905 40.4533 29.9053 40.4335 30.1206L40.431 30.1589C40.4302 30.1631 40.43 30.1665 40.4303 30.1691L40.4297 30.1723L40.4291 30.1733L41.0317 30.2145ZM41.0317 30.2145L40.4291 30.1733L40.4292 30.1742L40.4286 30.1809L40.4157 30.3246C40.4052 30.4291 40.3871 30.5845 40.3593 30.783C40.3032 31.1804 40.2058 31.7499 40.0411 32.4271C39.7105 33.7856 39.1149 35.5612 38.0541 37.2583L39.0786 37.8987C40.2285 36.0592 40.8648 34.1524 41.2148 32.7126C41.3564 32.1317 41.4702 31.5442 41.5557 30.9524C41.5873 30.7258 41.613 30.4984 41.6329 30.2704L41.6339 30.2597L41.6345 30.2565L41.6346 30.2551L41.0317 30.2145ZM38.0541 37.2583C36.9936 38.9549 35.6583 40.2681 34.5814 41.1601C34.1517 41.5167 33.7051 41.8526 33.2433 42.1666C33.0755 42.2797 32.9049 42.3885 32.7316 42.4929L32.7267 42.4963L33.0265 43.0206L33.3267 43.5445L33.3281 43.5433L33.3313 43.5417L33.3407 43.5369L33.3735 43.5175L33.4919 43.4455C33.5934 43.3822 33.7387 43.2899 33.9189 43.1681C34.4136 42.8321 34.892 42.4726 35.3524 42.0909C36.4939 41.1445 37.929 39.7377 39.0786 37.8987L38.0541 37.2583Z" fill="#6A462F"/>
<path d="M32.0659 44.5573C37.4411 47.9174 45.8127 44.2197 50.7644 36.2984C55.716 28.377 55.3727 19.2316 49.9975 15.8715C44.6222 12.5115 36.2507 16.2091 31.299 24.1305C26.3473 32.0519 26.6907 41.1973 32.0659 44.5573Z" stroke="black" stroke-width="0.5"/>
<path d="M49.0368 17.4083C49.0368 17.4083 45.7082 19.3142 43.4975 22.8507C41.2868 26.3873 41.0317 30.2144 41.0317 30.2144C41.0317 30.2144 40.7765 34.0416 38.5658 37.5781C36.3551 41.1147 33.0265 43.0206 33.0265 43.0206" stroke="black" stroke-width="0.5" stroke-linecap="round" stroke-linejoin="round"/>
</svg>
