<svg width="36" height="36" viewBox="0 0 36 36" fill="none" xmlns="http://www.w3.org/2000/svg">
<path d="M34.9617 24.8838C35.5086 25.1572 35.9188 25.7725 35.9188 26.4561C35.9188 26.5244 35.9188 26.6611 35.9188 26.7979L34.2781 33.9072C34.073 34.6592 33.4578 35.1377 32.7059 35.1377C15.1375 35.1377 0.98711 20.9873 0.98711 3.41895C0.98711 2.66699 1.46563 2.05176 2.21758 1.84668L9.32695 0.206055C9.46367 0.206055 9.60039 0.137695 9.66875 0.137695C10.3523 0.137695 10.9676 0.547852 11.241 1.16309L14.5223 8.81934C14.5906 9.02441 14.659 9.22949 14.659 9.43457C14.659 9.98145 14.3855 10.46 14.0438 10.7334L9.87383 14.1514C12.4031 19.4834 16.6414 23.7217 21.9734 26.251L25.3914 22.0811C25.6648 21.7393 26.1434 21.4658 26.6219 21.4658C26.8953 21.4658 27.1004 21.5342 27.3055 21.6025L34.9617 24.8838Z" fill="white"/>
</svg>
