<svg width="20" height="20" viewBox="0 0 20 20" fill="none" xmlns="http://www.w3.org/2000/svg">
<path d="M13.7697 12.333C14.1993 12.0465 14.5965 11.7145 14.9611 11.3369C15.3126 10.9463 15.6154 10.5231 15.8693 10.0674C16.1232 9.61165 16.3152 9.12337 16.4454 8.60254C16.5887 8.08171 16.6603 7.54134 16.6603 6.98145C16.6603 6.09603 16.491 5.2627 16.1525 4.48145C15.8139 3.71322 15.3549 3.03939 14.7755 2.45996C14.1961 1.88053 13.5223 1.42155 12.754 1.08301C11.9728 0.744467 11.1394 0.575195 10.254 0.575195C9.36861 0.575195 8.53528 0.744467 7.75403 1.08301C6.9858 1.42155 6.31197 1.88053 5.73254 2.45996C5.15312 3.03939 4.69413 3.71322 4.35559 4.48145C4.01705 5.2627 3.84778 6.09603 3.84778 6.98145C3.84778 7.54134 3.91939 8.08171 4.06262 8.60254C4.19283 9.12337 4.38489 9.61165 4.63879 10.0674C4.8927 10.5231 5.19543 10.9463 5.547 11.3369C5.91158 11.7145 6.30872 12.0465 6.7384 12.333C6.13944 12.5283 5.57304 12.7692 5.03918 13.0557C4.50533 13.3421 4.01705 13.6676 3.57434 14.0322C3.14465 14.3968 2.76705 14.7939 2.44153 15.2236C2.10299 15.6663 1.81978 16.1351 1.59192 16.6299C1.36405 17.1247 1.18502 17.652 1.05481 18.2119C0.937622 18.7718 0.879028 19.3512 0.879028 19.9502H2.44153C2.44153 18.9736 2.63033 18.085 3.00793 17.2842C3.38554 16.4834 3.91288 15.8031 4.58997 15.2432C5.26705 14.6572 6.08736 14.2015 7.0509 13.876C8.01444 13.5505 9.08215 13.3877 10.254 13.3877C11.4259 13.3877 12.4936 13.5505 13.4572 13.876C14.4207 14.2015 15.241 14.6572 15.9181 15.2432C16.5952 15.8031 17.1225 16.4834 17.5001 17.2842C17.8777 18.085 18.0665 18.9736 18.0665 19.9502H19.629C19.629 19.3512 19.5704 18.7718 19.4532 18.2119C19.323 17.652 19.144 17.1247 18.9161 16.6299C18.6883 16.1351 18.4051 15.6663 18.0665 15.2236C17.741 14.7939 17.3634 14.3968 16.9337 14.0322C16.491 13.6676 16.0027 13.3421 15.4689 13.0557C14.935 12.7692 14.3686 12.5283 13.7697 12.333ZM5.41028 6.98145C5.41028 6.31738 5.53398 5.68587 5.78137 5.08691C6.04179 4.50098 6.3901 3.98991 6.82629 3.55371C7.26249 3.11751 7.77356 2.76921 8.3595 2.50879C8.95846 2.26139 9.58997 2.1377 10.254 2.1377C10.9181 2.1377 11.5496 2.26139 12.1486 2.50879C12.7345 2.76921 13.2456 3.11751 13.6818 3.55371C14.118 3.98991 14.4663 4.50098 14.7267 5.08691C14.9741 5.68587 15.0978 6.31738 15.0978 6.98145C15.0978 7.64551 14.9741 8.27702 14.7267 8.87598C14.4663 9.46191 14.118 9.97298 13.6818 10.4092C13.2456 10.8454 12.7345 11.1937 12.1486 11.4541C11.5496 11.7015 10.9181 11.8252 10.254 11.8252C9.58997 11.8252 8.95846 11.7015 8.3595 11.4541C7.77356 11.1937 7.26249 10.8454 6.82629 10.4092C6.3901 9.97298 6.04179 9.46191 5.78137 8.87598C5.53398 8.27702 5.41028 7.64551 5.41028 6.98145Z" fill="#333333"/>
</svg>
