<svg width="22" height="22" viewBox="0 0 22 22" fill="none" xmlns="http://www.w3.org/2000/svg">
<path d="M11.4965 5.26221C14.4496 5.26221 16.8871 7.69971 16.8871 10.6528C16.8871 13.6528 14.4496 16.0435 11.4965 16.0435C8.49648 16.0435 6.10586 13.6528 6.10586 10.6528C6.10586 7.69971 8.49648 5.26221 11.4965 5.26221ZM11.4965 14.1685C13.4184 14.1685 14.9652 12.6216 14.9652 10.6528C14.9652 8.73096 13.4184 7.18408 11.4965 7.18408C9.52773 7.18408 7.98086 8.73096 7.98086 10.6528C7.98086 12.6216 9.57461 14.1685 11.4965 14.1685ZM18.3402 5.07471C18.3402 5.77783 17.7777 6.34033 17.0746 6.34033C16.3715 6.34033 15.809 5.77783 15.809 5.07471C15.809 4.37158 16.3715 3.80908 17.0746 3.80908C17.7777 3.80908 18.3402 4.37158 18.3402 5.07471ZM21.9027 6.34033C21.9965 8.07471 21.9965 13.2778 21.9027 15.0122C21.809 16.6997 21.434 18.1528 20.2152 19.4185C18.9965 20.6372 17.4965 21.0122 15.809 21.106C14.0746 21.1997 8.87148 21.1997 7.13711 21.106C5.44961 21.0122 3.99648 20.6372 2.73086 19.4185C1.51211 18.1528 1.13711 16.6997 1.04336 15.0122C0.94961 13.2778 0.94961 8.07471 1.04336 6.34033C1.13711 4.65283 1.51211 3.15283 2.73086 1.93408C3.99648 0.715332 5.44961 0.340332 7.13711 0.246582C8.87148 0.152832 14.0746 0.152832 15.809 0.246582C17.4965 0.340332 18.9965 0.715332 20.2152 1.93408C21.434 3.15283 21.809 4.65283 21.9027 6.34033ZM19.6527 16.8403C20.2152 15.481 20.0746 12.1997 20.0746 10.6528C20.0746 9.15283 20.2152 5.87158 19.6527 4.46533C19.2777 3.57471 18.5746 2.82471 17.684 2.49658C16.2777 1.93408 12.9965 2.07471 11.4965 2.07471C9.94961 2.07471 6.66836 1.93408 5.30898 2.49658C4.37148 2.87158 3.66836 3.57471 3.29336 4.46533C2.73086 5.87158 2.87148 9.15283 2.87148 10.6528C2.87148 12.1997 2.73086 15.481 3.29336 16.8403C3.66836 17.7778 4.37148 18.481 5.30898 18.856C6.66836 19.4185 9.94961 19.2778 11.4965 19.2778C12.9965 19.2778 16.2777 19.4185 17.684 18.856C18.5746 18.481 19.3246 17.7778 19.6527 16.8403Z" fill="white"/>
</svg>
