<svg width="104" height="310" viewBox="0 0 104 310" fill="none" xmlns="http://www.w3.org/2000/svg">
<path d="M2.8 148.127L7.00359 149.072L3.40365 146.227L3.86038 144.789L8.12146 145.554L4.46084 142.899L4.98783 141.241L10.7106 145.599L10.206 147.187L5.89698 146.539L9.46503 149.519L8.96038 151.107L2.27301 149.785L2.8 148.127Z" fill="#625C4B"/>
<path d="M6.71143 137.447L7.6238 135.557L14.1161 137.61L13.3688 139.158L12.2568 138.778L11.3307 140.697L12.1722 141.637L11.4249 143.186L6.71143 137.447ZM8.3298 137.329L10.2752 139.481L10.8529 138.284L8.3298 137.329Z" fill="#625C4B"/>
<path d="M15.6446 134.812C15.3178 135.329 14.9798 135.612 14.6305 135.659C14.2812 135.706 13.8829 135.526 13.4357 135.119L9.6684 131.69L10.5698 130.263L14.1266 133.501C14.3814 133.733 14.5989 133.706 14.7792 133.421L15.861 131.709L16.9686 132.717L15.6446 134.812Z" fill="#625C4B"/>
<path d="M14.3256 124.857L16.0836 126.907L16.5613 126.317L15.5397 123.357L16.6543 121.979L17.8781 125.844L21.1507 127.093L20.036 128.471L17.5366 127.453L17.0589 128.044L18.7688 130.037L17.7073 131.349L13.264 126.169L14.3256 124.857Z" fill="#625C4B"/>
<path d="M25.4846 114.055C26.5787 113.252 27.3986 113.386 27.9444 114.458C28.1199 114.802 28.2031 115.142 28.194 115.475C28.1874 115.799 28.0724 116.085 27.8492 116.335C28.1799 116.204 28.4912 116.204 28.7833 116.334C29.0753 116.464 29.3251 116.733 29.5325 117.14C29.8357 117.735 29.9154 118.266 29.7717 118.733C29.6248 119.194 29.2622 119.637 28.6839 120.061L26.3199 121.796L23.2225 115.715L25.4846 114.055ZM26.7111 116.486C26.8245 116.403 26.8885 116.291 26.903 116.152C26.9199 116.001 26.8901 115.851 26.8135 115.701C26.7114 115.5 26.6011 115.383 26.4828 115.35C26.3668 115.306 26.255 115.323 26.1473 115.402L25.263 116.051L25.8182 117.141L26.7111 116.486ZM27.9616 118.757C28.1147 118.645 28.2038 118.507 28.2289 118.342C28.254 118.177 28.2171 117.998 28.1182 117.803C28.0288 117.628 27.9145 117.518 27.7752 117.474C27.6416 117.426 27.501 117.456 27.3536 117.564L26.3927 118.269L27.0007 119.463L27.9616 118.757Z" fill="#625C4B"/>
<path d="M30.3141 110.978L31.9012 115.272C32.0816 115.76 32.4821 115.839 33.1027 115.509C33.7358 115.171 33.9621 114.759 33.7817 114.271L32.1947 109.977L33.6656 109.194L35.2527 113.488C35.5404 114.266 35.5465 114.926 35.2712 115.467C34.9959 116.008 34.4486 116.497 33.6293 116.933C32.8163 117.366 32.1502 117.523 31.631 117.405C31.1095 117.28 30.7061 116.832 30.4209 116.06L28.8338 111.767L30.3141 110.978Z" fill="#625C4B"/>
<path d="M35.0909 108.606L39.9861 106.852L40.3476 108.306L38.6893 108.9L39.9748 114.069L38.3861 114.638L37.1006 109.469L35.4523 110.059L35.0909 108.606Z" fill="#625C4B"/>
<path d="M47.7405 107.077C47.7171 106.515 47.8543 106.091 48.152 105.805C48.4564 105.512 48.8544 105.351 49.3457 105.322L50.1459 105.274C51.0309 105.235 51.7592 105.237 52.331 105.28L52.3897 106.692L49.8839 106.842C49.7295 106.852 49.6154 106.901 49.5417 106.99C49.4678 107.072 49.4332 107.172 49.4382 107.292L49.4746 108.166L51.9944 108.1L52.0492 109.417L49.5372 109.673L49.6398 112.139L47.9553 112.24L47.7405 107.077Z" fill="#625C4B"/>
<path d="M55.3604 105.353L55.1083 112.172L53.423 112.083L53.6751 105.263L55.3604 105.353Z" fill="#625C4B"/>
<path d="M60.3489 106.034C61.0415 106.153 61.5256 106.425 61.8 106.85C62.0815 107.276 62.1768 107.87 62.0864 108.631C62.026 109.133 61.8991 109.518 61.7047 109.784C61.5109 110.042 61.2484 110.229 60.9163 110.343L61.7853 113.196L60.1121 112.909L59.408 110.361L58.6403 110.219L58.3549 112.606L56.692 112.321L57.5006 105.544L60.3489 106.034ZM59.6901 109.063C59.9117 109.101 60.0826 109.063 60.2024 108.948C60.3299 108.828 60.4104 108.628 60.4437 108.348C60.4763 108.076 60.4475 107.872 60.3576 107.735C60.2683 107.598 60.1088 107.511 59.8801 107.471L58.986 107.318L58.796 108.909L59.6901 109.063Z" fill="#625C4B"/>
<path d="M64.4323 114.247C64.111 114.143 63.7554 114.001 63.365 113.823C62.9812 113.647 62.6675 113.479 62.4236 113.319L62.7133 112.033C62.8788 112.094 63.0111 112.144 63.1102 112.183C63.2088 112.223 63.2877 112.256 63.346 112.282C63.915 112.496 64.3598 112.656 64.6811 112.76C64.9822 112.858 65.218 112.894 65.389 112.868C65.561 112.836 65.6699 112.72 65.7146 112.521L65.7445 112.387C65.7772 112.243 65.756 112.115 65.6808 112.002C65.6057 111.89 65.4946 111.809 65.3476 111.762L64.8559 111.602C64.1736 111.38 63.6994 111.064 63.4331 110.654C63.1734 110.246 63.1211 109.699 63.2757 109.013L63.3449 108.704C63.4903 108.059 63.7865 107.637 64.2341 107.436C64.6811 107.235 65.2594 107.25 65.9683 107.48C66.2558 107.573 66.5912 107.708 66.9751 107.884C67.359 108.06 67.677 108.226 67.9291 108.381L67.6367 109.678C67.0807 109.438 66.4812 109.215 65.8393 109.006C65.5452 108.911 65.3149 108.88 65.1494 108.915C64.9855 108.942 64.8788 109.066 64.8292 109.285L64.8058 109.388C64.7285 109.731 64.894 109.969 65.3018 110.101L65.9035 110.297C66.4791 110.484 66.8874 110.789 67.1292 111.214C67.372 111.631 67.4319 112.114 67.3083 112.663L67.2365 112.982C67.1205 113.497 66.9457 113.874 66.7121 114.115C66.4785 114.356 66.1769 114.482 65.8082 114.495C65.4456 114.51 64.9871 114.427 64.4323 114.247Z" fill="#625C4B"/>
<path d="M69.4755 108.835L74.1583 111.096L73.6824 112.516L72.0962 111.75L70.4034 116.8L68.8837 116.067L70.5765 111.016L68.9996 110.255L69.4755 108.835Z" fill="#625C4B"/>
<path d="M79.0391 118.598C79.3968 118 79.7333 117.545 80.0497 117.232C80.3747 116.918 80.69 116.728 80.996 116.662C81.2732 116.59 81.5509 116.605 81.8286 116.708C82.1117 116.815 82.4052 116.999 82.709 117.26C82.9753 117.49 83.2503 117.772 83.5334 118.108C83.8258 118.443 84.0463 118.742 84.1944 119.007L83.5182 120.139C83.1975 119.716 82.7629 119.269 82.2141 118.796C82.0436 118.649 81.8901 118.548 81.7529 118.494C81.6244 118.439 81.5013 118.429 81.3837 118.464C81.2258 118.511 81.0603 118.633 80.8855 118.831C80.72 119.026 80.5218 119.317 80.2909 119.704C80.06 120.09 79.8928 120.403 79.7894 120.643C79.6914 120.888 79.6462 121.105 79.6538 121.295C79.6674 121.462 79.7153 121.617 79.7981 121.762C79.8847 121.901 80.0159 122.046 80.1918 122.197C80.7298 122.661 81.2067 123.031 81.6227 123.307L80.9568 124.42C80.7058 124.341 80.4156 124.191 80.0867 123.972C79.7616 123.747 79.442 123.499 79.1273 123.228C78.8185 122.961 78.5746 122.687 78.396 122.406C78.2228 122.128 78.115 121.816 78.0726 121.468C77.9991 120.755 78.3209 119.799 79.0391 118.598Z" fill="#625C4B"/>
<path d="M83.6235 122.88C84.1583 122.192 84.6331 121.716 85.0474 121.453C85.4656 121.184 85.8843 121.113 86.3036 121.239C86.7223 121.365 87.1846 121.711 87.691 122.277C88.1968 122.843 88.5154 123.375 88.645 123.874C88.7795 124.366 88.7473 124.87 88.5486 125.385C88.3553 125.905 87.9954 126.504 87.4694 127.181C86.9434 127.859 86.4708 128.332 86.052 128.601C85.6377 128.864 85.2211 128.932 84.8024 128.806C84.3837 128.68 83.9236 128.337 83.4221 127.776C82.9157 127.21 82.5933 126.678 82.4545 126.18C82.32 125.687 82.3478 125.184 82.5373 124.669C82.7355 124.154 83.0976 123.558 83.6235 122.88ZM84.7343 124.123C84.4153 124.534 84.1904 124.869 84.0597 125.127C83.9334 125.38 83.8898 125.622 83.9296 125.853C83.9693 126.084 84.106 126.331 84.3407 126.593C84.5748 126.855 84.7871 126.999 84.9772 127.025C85.1721 127.056 85.372 126.984 85.5778 126.809C85.7836 126.635 86.0439 126.345 86.3586 125.939C86.6902 125.511 86.9194 125.171 87.0458 124.918C87.1764 124.66 87.2222 124.42 87.1835 124.2C87.1443 123.98 87.0049 123.736 86.7659 123.469C86.5268 123.201 86.3123 123.049 86.1217 123.013C85.9361 122.981 85.74 123.053 85.5348 123.228C85.3333 123.397 85.0665 123.695 84.7343 124.123Z" fill="#625C4B"/>
<path d="M89.6374 127.42C90.036 127.023 90.4177 126.857 90.783 126.923C91.1577 126.99 91.4844 127.225 91.7648 127.63L92.2211 128.289C92.7149 129.028 93.0972 129.658 93.3662 130.181L92.3654 131.179L90.9371 129.115C90.8489 128.988 90.7531 128.922 90.6491 128.918C90.5505 128.909 90.4585 128.947 90.3741 129.031L89.7539 129.65L91.1288 131.782L90.1955 132.713L88.6861 130.715L86.9383 132.457L85.9778 131.07L89.6374 127.42Z" fill="#625C4B"/>
<path d="M93.2755 133.064C93.7193 132.719 94.1206 132.6 94.4784 132.709C94.8453 132.819 95.1454 133.09 95.3795 133.523L95.7601 134.229C96.1701 135.017 96.4794 135.686 96.689 136.234L95.5733 137.102L94.3809 134.893C94.3074 134.757 94.2192 134.681 94.1157 134.664C94.0177 134.644 93.9219 134.67 93.8277 134.744L93.1367 135.281L94.2676 137.551L93.2265 138.36L91.9459 136.207L89.9976 137.722L89.1961 136.237L93.2755 133.064Z" fill="#625C4B"/>
<path d="M92.5054 143.464C92.0594 142.37 92.2974 141.552 93.2192 141.011L96.3392 139.18C96.8244 138.895 97.2404 138.828 97.5878 138.98C97.9439 139.134 98.2145 139.439 98.4002 139.895C98.5407 140.24 98.698 140.644 98.8717 141.107L99.4173 142.723L98.1895 143.444L97.254 141.148C97.1293 140.842 96.9398 140.764 96.685 140.914L96.1122 141.25L96.9812 143.632L95.835 144.305L94.8114 142.013L94.2745 142.328C94.1291 142.414 94.0344 142.514 93.9908 142.628C93.9472 142.743 93.9521 142.865 94.0049 142.995L94.9606 145.339L93.7322 146.06C93.571 145.775 93.4354 145.516 93.3254 145.282C93.0521 144.741 92.7787 144.135 92.5054 143.464Z" fill="#625C4B"/>
<path d="M94.5148 149.583C94.1881 148.447 94.5181 147.675 95.5053 147.265L98.8463 145.878C99.3663 145.663 99.7922 145.652 100.124 145.847C100.465 146.046 100.704 146.382 100.84 146.855C100.943 147.213 101.056 147.631 101.18 148.11L101.55 149.772L100.235 150.318L99.5482 147.936C99.4567 147.618 99.2749 147.516 99.0021 147.629L98.3884 147.884L98.9983 150.343L97.7709 150.852L96.995 148.462L96.4206 148.701C96.2643 148.766 96.1581 148.851 96.102 148.958C96.0454 149.065 96.0367 149.186 96.0754 149.321L96.7761 151.753L95.4612 152.299C95.3305 151.997 95.2227 151.724 95.1377 151.48C94.9232 150.911 94.7152 150.278 94.5148 149.583Z" fill="#625C4B"/>
<path d="M2.8 162.081L7.00359 161.136L3.40365 163.981L3.86038 165.418L8.12146 164.654L4.46084 167.308L4.98783 168.967L10.7106 164.608L10.206 163.02L5.89698 163.669L9.46503 160.688L8.96038 159.1L2.27301 160.422L2.8 162.081Z" fill="#625C4B"/>
<path d="M6.71143 172.761L7.6238 174.651L14.1161 172.598L13.3688 171.05L12.2568 171.43L11.3307 169.511L12.1722 168.57L11.4249 167.022L6.71143 172.761ZM8.3298 172.879L10.2752 170.727L10.8529 171.924L8.3298 172.879Z" fill="#625C4B"/>
<path d="M15.6446 175.394C15.3178 174.877 14.9798 174.595 14.6305 174.547C14.2812 174.5 13.8829 174.68 13.4357 175.087L9.6684 178.517L10.5698 179.943L14.1266 176.706C14.3814 176.474 14.5989 176.5 14.7792 176.786L15.861 178.498L16.9686 177.489L15.6446 175.394Z" fill="#625C4B"/>
<path d="M14.3256 185.35L16.0836 183.3L16.5613 183.89L15.5397 186.85L16.6543 188.227L17.8781 184.363L21.1507 183.114L20.036 181.736L17.5366 182.754L17.0589 182.163L18.7688 180.17L17.7073 178.858L13.264 184.038L14.3256 185.35Z" fill="#625C4B"/>
<path d="M25.4846 196.152C26.5787 196.955 27.3986 196.82 27.9444 195.749C28.1199 195.404 28.2031 195.066 28.194 194.732C28.1874 194.408 28.0724 194.121 27.8492 193.872C28.1799 194.003 28.4912 194.003 28.7833 193.873C29.0753 193.743 29.3251 193.474 29.5325 193.067C29.8357 192.472 29.9154 191.941 29.7717 191.473C29.6248 191.013 29.2622 190.57 28.6839 190.146L26.3199 188.411L23.2225 194.492L25.4846 196.152ZM26.7111 193.721C26.8245 193.804 26.8885 193.916 26.903 194.055C26.9199 194.205 26.8901 194.355 26.8135 194.506C26.7114 194.707 26.6011 194.824 26.4828 194.858C26.3668 194.902 26.255 194.884 26.1473 194.805L25.263 194.156L25.8182 193.066L26.7111 193.721ZM27.9616 191.449C28.1147 191.562 28.2038 191.7 28.2289 191.865C28.254 192.03 28.2171 192.209 28.1182 192.403C28.0288 192.579 27.9145 192.689 27.7752 192.733C27.6416 192.781 27.501 192.751 27.3536 192.643L26.3927 191.938L27.0007 190.744L27.9616 191.449Z" fill="#625C4B"/>
<path d="M30.3141 199.229L31.9012 194.936C32.0816 194.447 32.4821 194.368 33.1027 194.699C33.7358 195.036 33.9621 195.448 33.7817 195.937L32.1947 200.23L33.6656 201.014L35.2527 196.72C35.5404 195.942 35.5465 195.282 35.2712 194.741C34.9959 194.199 34.4486 193.71 33.6293 193.274C32.8163 192.841 32.1502 192.684 31.631 192.802C31.1095 192.927 30.7061 193.376 30.4209 194.147L28.8338 198.441L30.3141 199.229Z" fill="#625C4B"/>
<path d="M35.0909 201.601L39.9861 203.355L40.3476 201.901L38.6893 201.307L39.9748 196.138L38.3861 195.569L37.1006 200.738L35.4523 200.148L35.0909 201.601Z" fill="#625C4B"/>
<path d="M47.7405 203.131C47.7171 203.693 47.8543 204.116 48.152 204.402C48.4564 204.695 48.8544 204.856 49.3457 204.886L50.1459 204.934C51.0309 204.972 51.7592 204.97 52.331 204.927L52.3897 203.515L49.8839 203.365C49.7295 203.356 49.6154 203.307 49.5417 203.217C49.4678 203.136 49.4332 203.035 49.4382 202.916L49.4746 202.041L51.9944 202.107L52.0492 200.79L49.5372 200.534L49.6398 198.068L47.9553 197.967L47.7405 203.131Z" fill="#625C4B"/>
<path d="M55.3604 204.854L55.1083 198.034L53.423 198.124L53.6751 204.943L55.3604 204.854Z" fill="#625C4B"/>
<path d="M60.3489 204.171C61.0415 204.052 61.5256 203.78 61.8 203.355C62.0815 202.929 62.1768 202.336 62.0864 201.574C62.026 201.072 61.8991 200.687 61.7047 200.422C61.5109 200.163 61.2484 199.976 60.9163 199.863L61.7853 197.009L60.1121 197.297L59.408 199.844L58.6403 199.987L58.3549 197.598L56.692 197.884L57.5006 204.661L60.3489 204.171ZM59.6901 201.142C59.9117 201.104 60.0826 201.142 60.2024 201.257C60.3299 201.377 60.4104 201.578 60.4437 201.857C60.4763 202.129 60.4475 202.334 60.3576 202.47C60.2683 202.607 60.1088 202.695 59.8801 202.734L58.986 202.888L58.796 201.296L59.6901 201.142Z" fill="#625C4B"/>
<path d="M64.4323 195.959C64.111 196.064 63.7554 196.205 63.365 196.383C62.9812 196.559 62.6675 196.727 62.4236 196.887L62.7133 198.174C62.8788 198.113 63.0111 198.062 63.1102 198.023C63.2088 197.983 63.2877 197.95 63.346 197.924C63.915 197.71 64.3598 197.551 64.6811 197.446C64.9822 197.349 65.218 197.313 65.389 197.338C65.561 197.37 65.6699 197.486 65.7146 197.685L65.7445 197.818C65.7772 197.963 65.756 198.091 65.6808 198.204C65.6057 198.317 65.4946 198.397 65.3476 198.445L64.8559 198.604C64.1736 198.826 63.6994 199.142 63.4331 199.552C63.1734 199.96 63.1211 200.507 63.2757 201.193L63.3449 201.502C63.4903 202.147 63.7865 202.569 64.2341 202.77C64.6811 202.971 65.2594 202.956 65.9683 202.726C66.2558 202.633 66.5912 202.498 66.9751 202.322C67.359 202.146 67.677 201.98 67.9291 201.824L67.6367 200.528C67.0807 200.768 66.4812 200.991 65.8393 201.2C65.5452 201.296 65.3149 201.326 65.1494 201.291C64.9855 201.264 64.8788 201.141 64.8292 200.921L64.8058 200.818C64.7285 200.475 64.894 200.237 65.3018 200.105L65.9035 199.909C66.4791 199.723 66.8874 199.417 67.1292 198.992C67.372 198.575 67.4319 198.092 67.3083 197.543L67.2365 197.224C67.1205 196.709 66.9457 196.332 66.7121 196.091C66.4785 195.851 66.1769 195.724 65.8082 195.711C65.4456 195.696 64.9871 195.779 64.4323 195.959Z" fill="#625C4B"/>
<path d="M69.4755 201.373L74.1583 199.111L73.6824 197.691L72.0962 198.458L70.4034 193.407L68.8837 194.141L70.5765 199.191L68.9996 199.952L69.4755 201.373Z" fill="#625C4B"/>
<path d="M79.0391 191.609C79.3968 192.207 79.7333 192.662 80.0497 192.975C80.3747 193.289 80.69 193.479 80.996 193.545C81.2732 193.617 81.5509 193.601 81.8286 193.499C82.1117 193.392 82.4052 193.208 82.709 192.946C82.9753 192.717 83.2503 192.434 83.5334 192.099C83.8258 191.764 84.0463 191.465 84.1944 191.2L83.5182 190.068C83.1975 190.491 82.7629 190.938 82.2141 191.411C82.0436 191.558 81.8901 191.659 81.7529 191.712C81.6244 191.768 81.5013 191.778 81.3837 191.743C81.2258 191.696 81.0603 191.574 80.8855 191.377C80.72 191.18 80.5218 190.89 80.2909 190.503C80.06 190.117 79.8928 189.804 79.7894 189.564C79.6914 189.319 79.6462 189.102 79.6538 188.912C79.6674 188.745 79.7153 188.59 79.7981 188.445C79.8847 188.307 80.0159 188.161 80.1918 188.01C80.7298 187.546 81.2067 187.176 81.6227 186.9L80.9568 185.787C80.7058 185.866 80.4156 186.015 80.0867 186.235C79.7616 186.46 79.442 186.708 79.1273 186.979C78.8185 187.245 78.5746 187.519 78.396 187.801C78.2228 188.078 78.115 188.391 78.0726 188.738C77.9991 189.451 78.3209 190.408 79.0391 191.609Z" fill="#625C4B"/>
<path d="M83.6235 187.327C84.1583 188.016 84.6331 188.491 85.0474 188.754C85.4656 189.023 85.8843 189.094 86.3036 188.968C86.7223 188.842 87.1846 188.496 87.691 187.93C88.1968 187.364 88.5154 186.832 88.645 186.334C88.7795 185.841 88.7473 185.337 88.5486 184.823C88.3553 184.302 87.9954 183.703 87.4694 183.026C86.9434 182.348 86.4708 181.875 86.052 181.607C85.6377 181.344 85.2211 181.275 84.8024 181.401C84.3837 181.527 83.9236 181.87 83.4221 182.431C82.9157 182.997 82.5933 183.529 82.4545 184.027C82.32 184.52 82.3478 185.023 82.5373 185.538C82.7355 186.053 83.0976 186.649 83.6235 187.327ZM84.7343 186.084C84.4153 185.673 84.1904 185.339 84.0597 185.08C83.9334 184.827 83.8898 184.585 83.9296 184.354C83.9693 184.123 84.106 183.876 84.3407 183.614C84.5748 183.352 84.7871 183.208 84.9772 183.182C85.1721 183.151 85.372 183.223 85.5778 183.398C85.7836 183.572 86.0439 183.863 86.3586 184.268C86.6902 184.696 86.9194 185.036 87.0458 185.289C87.1764 185.548 87.2222 185.787 87.1835 186.007C87.1443 186.227 87.0049 186.471 86.7659 186.739C86.5268 187.006 86.3123 187.158 86.1217 187.194C85.9361 187.226 85.74 187.154 85.5348 186.979C85.3333 186.811 85.0665 186.512 84.7343 186.084Z" fill="#625C4B"/>
<path d="M89.6374 182.786C90.036 183.183 90.4177 183.349 90.783 183.283C91.1577 183.216 91.4844 182.981 91.7648 182.576L92.2211 181.917C92.7149 181.178 93.0972 180.548 93.3662 180.025L92.3654 179.027L90.9371 181.091C90.8489 181.218 90.7531 181.284 90.6491 181.288C90.5505 181.297 90.4585 181.259 90.3741 181.175L89.7539 180.557L91.1288 178.424L90.1955 177.493L88.6861 179.491L86.9383 177.749L85.9778 179.136L89.6374 182.786Z" fill="#625C4B"/>
<path d="M93.2755 177.143C93.7193 177.488 94.1206 177.607 94.4784 177.499C94.8453 177.389 95.1454 177.117 95.3795 176.684L95.7601 175.979C96.1701 175.19 96.4794 174.522 96.689 173.973L95.5733 173.106L94.3809 175.315C94.3074 175.451 94.2192 175.527 94.1157 175.543C94.0177 175.563 93.9219 175.537 93.8277 175.464L93.1367 174.926L94.2676 172.656L93.2265 171.847L91.9459 174.001L89.9976 172.485L89.1961 173.97L93.2755 177.143Z" fill="#625C4B"/>
<path d="M92.5054 166.742C92.0594 167.836 92.2974 168.653 93.2192 169.194L96.3392 171.025C96.8244 171.31 97.2404 171.377 97.5878 171.226C97.9439 171.072 98.2145 170.767 98.4002 170.31C98.5407 169.966 98.698 169.562 98.8717 169.098L99.4173 167.482L98.1895 166.761L97.254 169.057C97.1293 169.363 96.9398 169.441 96.685 169.292L96.1122 168.955L96.9812 166.573L95.835 165.9L94.8114 168.192L94.2745 167.877C94.1291 167.792 94.0344 167.691 93.9908 167.577C93.9472 167.463 93.9521 167.341 94.0049 167.21L94.9606 164.866L93.7322 164.145C93.571 164.43 93.4354 164.689 93.3254 164.923C93.0521 165.464 92.7787 166.071 92.5054 166.742Z" fill="#625C4B"/>
<path d="M94.5148 160.625C94.1881 161.759 94.5181 162.532 95.5053 162.942L98.8463 164.328C99.3663 164.544 99.7922 164.554 100.124 164.359C100.465 164.161 100.704 163.825 100.84 163.352C100.943 162.994 101.056 162.576 101.18 162.097L101.55 160.435L100.235 159.889L99.5482 162.271C99.4567 162.589 99.2749 162.691 99.0021 162.578L98.3884 162.323L98.9983 159.864L97.7709 159.355L96.995 161.745L96.4206 161.506C96.2643 161.441 96.1581 161.356 96.102 161.249C96.0454 161.143 96.0367 161.022 96.0754 160.887L96.7761 158.454L95.4612 157.908C95.3305 158.209 95.2227 158.483 95.1377 158.727C94.9232 159.296 94.7152 159.928 94.5148 160.625Z" fill="#625C4B"/>
<path d="M52.8101 139.774L55.177 153.198L68.6007 155.565L55.177 157.932L52.8101 171.356L50.4429 157.932L37.0194 155.565L50.4429 153.198L52.8101 139.774Z" fill="#B0A27B"/>
</svg>
