<svg width="21" height="22" viewBox="0 0 21 22" fill="none" xmlns="http://www.w3.org/2000/svg">
<path d="M17.809 3.24658C19.7777 5.21533 20.9965 7.79346 20.9965 10.606C20.9965 16.3247 16.2152 21.0122 10.4496 21.0122C8.71523 21.0122 7.02773 20.5435 5.48086 19.7466L-0.00351524 21.1528L1.44961 15.7622C0.558985 14.2153 0.0433598 12.4341 0.0433598 10.5591C0.0433598 4.84033 4.73086 0.152832 10.4496 0.152832C13.2621 0.152832 15.8871 1.27783 17.809 3.24658ZM10.4496 19.231C15.2309 19.231 19.2152 15.3403 19.2152 10.606C19.2152 8.26221 18.2309 6.10596 16.5902 4.46533C14.9496 2.82471 12.7934 1.93408 10.4965 1.93408C5.71523 1.93408 1.82461 5.82471 1.82461 10.5591C1.82461 12.1997 2.29336 13.7935 3.13711 15.1997L3.37148 15.5278L2.48086 18.7153L5.76211 17.8247L6.04336 18.0122C7.40273 18.8091 8.90273 19.231 10.4496 19.231ZM15.2309 12.7622C15.4652 12.9028 15.6527 12.9497 15.6996 13.0903C15.7934 13.1841 15.7934 13.6997 15.559 14.3091C15.3246 14.9185 14.2934 15.481 13.8246 15.5278C12.9809 15.6685 12.3246 15.6216 10.684 14.8716C8.05898 13.7466 6.37148 11.1216 6.23086 10.981C6.09023 10.7935 5.19961 9.57471 5.19961 8.26221C5.19961 6.99658 5.85586 6.38721 6.09023 6.10596C6.32461 5.82471 6.60586 5.77783 6.79336 5.77783C6.93398 5.77783 7.12148 5.77783 7.26211 5.77783C7.44961 5.77783 7.63711 5.73096 7.87148 6.24658C8.05898 6.76221 8.62148 8.02783 8.66836 8.16846C8.71523 8.30908 8.76211 8.44971 8.66836 8.63721C8.19961 9.62158 7.63711 9.57471 7.91836 10.0435C8.94961 11.7778 9.93398 12.3872 11.4809 13.1372C11.7152 13.2778 11.8559 13.231 12.0434 13.0903C12.184 12.9028 12.6996 12.2935 12.8402 12.0591C13.0277 11.7778 13.2152 11.8247 13.4496 11.9185C13.684 12.0122 14.9496 12.6216 15.2309 12.7622Z" fill="white"/>
</svg>
