<svg width="35" height="35" viewBox="0 0 35 35" fill="none" xmlns="http://www.w3.org/2000/svg">
<path d="M17.4871 0.68457C26.8523 0.68457 34.4402 8.27246 34.4402 17.6377C34.4402 27.0029 26.8523 34.5908 17.4871 34.5908C8.12188 34.5908 0.533985 27.0029 0.533985 17.6377C0.533985 8.27246 8.12188 0.68457 17.4871 0.68457ZM17.4871 31.3096C25.0066 31.3096 31.159 25.2256 31.159 17.6377C31.159 10.1182 25.0066 3.96582 17.4871 3.96582C9.89922 3.96582 3.81524 10.1182 3.81524 17.6377C3.81524 25.2256 9.89922 31.3096 17.4871 31.3096ZM21.657 24.2002L15.8465 19.9619C15.6414 19.8252 15.573 19.5518 15.573 19.3467V8.06738C15.573 7.65723 15.9148 7.24707 16.3934 7.24707H18.5809C18.991 7.24707 19.4012 7.65723 19.4012 8.06738V17.7744L23.9129 21.124C24.323 21.3975 24.3914 21.876 24.118 22.2861L22.8191 23.9951C22.5457 24.4053 22.0672 24.4736 21.657 24.2002Z" fill="white"/>
</svg>
